<svg xmlns="http://www.w3.org/2000/svg" width="500" height="500" shape-rendering="geometricPrecision" text-rendering="geometricPrecision" image-rendering="optimizeQuality" fill-rule="evenodd" clip-rule="evenodd"><path fill="#662eff" d="M246.5 14.5c6.455.72 12.455 2.886 18 6.5a20117.094 20117.094 0 00165 95 928.917 928.917 0 0124.5 15.5 3583.964 3583.964 0 011.5 119c.161 39.416-.339 78.75-1.5 118A11859.256 11859.256 0 01253.5 485a12.494 12.494 0 01-7 0 1112.566 1112.566 0 01-39-22c-1.231-1.183-1.231-2.349 0-3.5l201-115.5c-5.116-4.06-10.782-6.727-17-8a37560.01 37560.01 0 01-202 115.5 747.646 747.646 0 01-32-17.5c-1.507-.837-2.007-2.004-1.5-3.5a3922.586 3922.586 0 0089.5-52c-5.024-4.184-10.691-6.684-17-7.5a1925.482 1925.482 0 00-72 42 86.366 86.366 0 01-18 8.5 58.442 58.442 0 01-16-7.5 127.426 127.426 0 01-18-12l90-53a104.522 104.522 0 00-14.5-8.5 6303.089 6303.089 0 01-92 52c-11.932-4.796-22.932-11.13-33-19-.617-.949-.45-1.782.5-2.5l88-51c-4.949-2.643-7.615-6.81-8-12.5a5222.187 5222.187 0 00-84 48.5c-2.186 1.309-4.353 1.476-6.5.5a186.368 186.368 0 011-38 11109.332 11109.332 0 0186.5-50.5 11.532 11.532 0 003.5-4.5 64.218 64.218 0 000-16A3721.659 3721.659 0 0148.5 298a8.43 8.43 0 01-4 .5 285.905 285.905 0 01-1-32.5c.366-4.701 2.699-8.034 7-10a3608.348 3608.348 0 0085.5-49.5 48.73 48.73 0 00-.5-17 5987.26 5987.26 0 01-89 51c-1.755-1.17-2.755-2.837-3-5a200.026 200.026 0 011.5-34A59519.861 59519.861 0 01245.5 85l1.5-1.5a48.73 48.73 0 00-.5-17 15079.698 15079.698 0 01-200 115c-1.667-.333-2.667-1.333-3-3-.343-15.471.157-31.137 1.5-47a33190.735 33190.735 0 01201.5-117zm113 174c.167 41.001 0 82.001-.5 123-1.36 2.523-3.193 4.523-5.5 6a2505.491 2505.491 0 00-101 58l-2-124c-.34-3.175-2.007-5.341-5-6.5a7813.495 7813.495 0 01-103-59 4243.575 4243.575 0 01107-61.5 4261.633 4261.633 0 01107 60.5 30.233 30.233 0 013 3.5z"/><path fill="#4d1bcc" d="M359.5 188.5a2608.051 2608.051 0 01.5 125c-1.638 2.234-3.805 3.567-6.5 4 2.307-1.477 4.14-3.477 5.5-6 .5-40.999.667-81.999.5-123z" opacity=".231"/><path fill="#5426d9" d="M250.5 251.5l2 124c-1.135 1.713-2.802 2.38-5 2v-4h3v-122z" opacity=".137"/></svg>