<?xml version="1.0" encoding="UTF-8"?>
<!DOCTYPE svg PUBLIC "-//W3C//DTD SVG 1.1//EN" "http://www.w3.org/Graphics/SVG/1.1/DTD/svg11.dtd">
<svg xmlns="http://www.w3.org/2000/svg" version="1.1" width="500px" height="500px" style="shape-rendering:geometricPrecision; text-rendering:geometricPrecision; image-rendering:optimizeQuality; fill-rule:evenodd; clip-rule:evenodd" xmlns:xlink="http://www.w3.org/1999/xlink">
<g><path style="opacity:1" fill="#32bdbe" d="M 246.5,14.5 C 252.955,15.2196 258.955,17.3863 264.5,21C 319.337,52.9194 374.337,84.586 429.5,116C 437.751,121.042 445.918,126.208 454,131.5C 455.158,171.108 455.658,210.775 455.5,250.5C 455.661,289.916 455.161,329.25 454,368.5C 387.608,407.951 320.775,446.784 253.5,485C 251.167,485.667 248.833,485.667 246.5,485C 233.338,477.92 220.338,470.587 207.5,463C 206.269,461.817 206.269,460.651 207.5,459.5C 274.5,421 341.5,382.5 408.5,344C 403.384,339.94 397.718,337.273 391.5,336C 324.292,374.705 256.959,413.205 189.5,451.5C 178.71,445.937 168.043,440.104 157.5,434C 155.993,433.163 155.493,431.996 156,430.5C 186.111,413.532 215.945,396.198 245.5,378.5C 240.476,374.316 234.809,371.816 228.5,371C 204.172,384.495 180.172,398.495 156.5,413C 150.807,416.537 144.807,419.37 138.5,421.5C 132.795,419.815 127.462,417.315 122.5,414C 116.119,410.483 110.119,406.483 104.5,402C 134.5,384.333 164.5,366.667 194.5,349C 189.913,345.788 185.08,342.955 180,340.5C 149.448,358.108 118.781,375.441 88,392.5C 76.0684,387.704 65.0684,381.37 55,373.5C 54.3828,372.551 54.5494,371.718 55.5,371C 84.8333,354 114.167,337 143.5,320C 138.551,317.357 135.885,313.19 135.5,307.5C 107.337,323.414 79.3366,339.581 51.5,356C 49.3136,357.309 47.1469,357.476 45,356.5C 44.0398,343.738 44.3731,331.071 46,318.5C 74.7513,301.54 103.585,284.707 132.5,268C 134.049,266.786 135.215,265.286 136,263.5C 136.667,258.167 136.667,252.833 136,247.5C 107.112,264.7 77.9451,281.534 48.5,298C 47.2068,298.49 45.8734,298.657 44.5,298.5C 43.5478,287.608 43.2144,276.775 43.5,266C 43.8656,261.299 46.1989,257.966 50.5,256C 79.2454,239.879 107.745,223.379 136,206.5C 136.83,200.804 136.663,195.137 135.5,189.5C 105.932,206.781 76.2655,223.781 46.5,240.5C 44.7453,239.33 43.7453,237.663 43.5,235.5C 43.0317,224.179 43.5317,212.845 45,201.5C 111.751,162.54 178.585,123.707 245.5,85C 246,84.5 246.5,84 247,83.5C 247.83,77.8041 247.663,72.1375 246.5,66.5C 180.058,105.383 113.391,143.716 46.5,181.5C 44.8333,181.167 43.8333,180.167 43.5,178.5C 43.1566,163.029 43.6566,147.363 45,131.5C 112.076,92.2373 179.243,53.2373 246.5,14.5 Z M 359.5,188.5 C 359.667,229.501 359.5,270.501 359,311.5C 357.64,314.023 355.807,316.023 353.5,317.5C 319.336,336.078 285.669,355.412 252.5,375.5C 251.833,334.167 251.167,292.833 250.5,251.5C 250.16,248.325 248.493,246.159 245.5,245C 211.004,225.586 176.67,205.92 142.5,186C 177.862,164.985 213.529,144.485 249.5,124.5C 285.405,144.123 321.072,164.289 356.5,185C 357.636,186.145 358.636,187.312 359.5,188.5 Z"/></g>
<g><path style="opacity:0.231" fill="#52afb1" d="M 359.5,188.5 C 360.665,229.998 360.831,271.665 360,313.5C 358.362,315.734 356.195,317.067 353.5,317.5C 355.807,316.023 357.64,314.023 359,311.5C 359.5,270.501 359.667,229.501 359.5,188.5 Z"/></g>
<g><path style="opacity:0.137" fill="#57b9bf" d="M 250.5,251.5 C 251.167,292.833 251.833,334.167 252.5,375.5C 251.365,377.213 249.698,377.88 247.5,377.5C 247.5,376.167 247.5,374.833 247.5,373.5C 248.5,373.5 249.5,373.5 250.5,373.5C 250.5,332.833 250.5,292.167 250.5,251.5 Z"/></g>
</svg>
